<svg enable-background="new 0 0 652 652" viewBox="0 200 652 252" xmlns="http://www.w3.org/2000/svg"><g fill="#262626"><path d="m127.8 292.4c-1.5 0-3 0-4.7 0-1.8-2.1-3.3-4.1-5-6.2-2.4-3-4.7-5.9-7.1-8.9-.6-.6-.9-1.2-1.5-1.8-1.8-1.8-1.8-1.8-4.1-1.8v8c0 1.8-.3 7.4 1.5 8.6.9.6 2.1.6 3 .6h1.2v1.5c-3 0-5.9-.3-8.9-.3s-5.9 0-8.9.3v-1.5h1.2c.9 0 2.1 0 3-.6 1.8-1.2 1.5-6.8 1.5-8.6v-18.7c0-2.1.3-7.7-1.8-8.9-.9-.3-1.8-.3-2.7-.6h-1.2v-1.5c3 0 5.9.3 8.9.3 3.3 0 6.5-.3 9.5-.3 3.3 0 6.5 0 9.5 1.8s4.1 5 4.1 8.3c0 3.9-2.1 7.4-5.6 8.9-1.8.9-3.3 1.2-5.3 1.5l13.3 15.4c1.8 2.1 3 2.7 5.6 3v1.5c-1.9 0-3.7 0-5.5 0zm-18-38.5c-.3 0-3.6 0-4.1.3-.6.3-.6.9-.6 1.5v16.9h1.8c3.3 0 8.6-.6 10.4-3.6.9-1.5 1.2-3.6 1.2-5-.1-6-2.5-10.1-8.7-10.1z"/><path d="m148.6 293.3c-7.7 0-14.5-5.9-14.5-13.9s6.8-13.6 14.5-13.6 14.8 5.9 14.8 13.6c0 8.3-6.8 13.9-14.8 13.9zm0-26.1c-6.5 0-8.6 6.5-8.6 12.1s1.5 12.7 8.6 12.7c6.8 0 8.3-6.5 8.3-12.1.3-5.9-1.2-12.7-8.3-12.7z"/><path d="m188.3 270.2c-1.2 2.4-2.1 5-3.3 7.4l-8 18.7c-.6 1.2-2.1 4.7-2.1 4.7-.6 1.5-2.1 5-4.4 5-.9 0-1.8-.6-1.8-1.8 0-2.1 1.8-2.7 3.3-3.3 1.8-.9 2.1-2.1 2.7-4.1l2.1-5-8.9-20.7c-1.2-2.7-1.5-3.3-4.1-3.6v-1.2h6.5 6.5v1.5c-1.5.3-3.6-.3-3.6 1.8 0 1.5 1.5 5 2.1 6.5l4.1 10.1 4.7-11.6c.6-1.2 1.5-3.6 1.5-5 0-1.8-2.1-1.8-3.3-1.8v-1.5h4.4 4.1v1.5c-1.6 0-1.6.6-2.5 2.4z"/><path d="m214.9 293c-2.7 0-4.4-1.5-5-3.9-3 2.4-6.2 4.4-10.1 4.4-3.3 0-6.2-1.8-6.2-5.3 0-5 4.7-7.1 8.9-8.9l4.4-2.1c.6-.3 2.1-.9 2.4-1.5.3-.3.3-.9.3-1.5 0-4.4-.6-7.1-5.3-7.1-3 0-5.3.3-5.6 3.6-.3 1.5-.9 2.7-2.4 2.7-1.2 0-2.1-.9-2.1-2.1 0-4.7 8-5.3 11.3-5.3 5.9 0 9.8 1.5 9.8 8v11.6c0 1.5 0 4.7 2.1 4.7 1.2 0 1.8-.6 2.4-1.5l1.2.6c-1.6 1.8-3.4 3.6-6.1 3.6zm-5.3-15.7c-1.8.6-3.6 1.5-5 2.4-2.7 1.5-5.6 3.3-5.6 6.5 0 2.4 1.5 4.4 3.9 4.4 2.7 0 5-1.8 6.8-3.6v-9.7z"/><path d="m229.5 292.4c-2.4 0-4.4 0-6.8.3v-1.5c3.9-.3 4.1-.6 4.1-4.4 0-.9 0-1.8 0-2.7v-22.2c0-1.8.3-5.3-1.5-6.2-.9-.3-2.1-.6-3-.6v-1.2c3.3-.3 6.5-1.2 9.8-1.8v32 2.7c0 3.9.3 3.9 4.1 4.4v1.5c-2.3-.3-4.7-.3-6.7-.3z"/><path d="m70.4 337.8c-3.9 3-8 2.7-12.4 2.7-2.4 0-5 0-7.4 0-.9 0-1.8 0-2.7 0-3 0-5.9.3-8.9.3v-1.5h1.2c.9 0 2.1 0 3-.6 2.1-1.2 1.5-6.8 1.5-8.6v-18.7c0-2.1.3-7.4-1.5-8.6-.9-.6-2.1-.6-3-.6-.3 0-.9 0-1.2 0v-1.5c3.6 0 7.1.3 10.7.3 2.4 0 4.7-.3 7.1-.3 6.2 0 13.3 2.1 13.3 9.5 0 3.3-1.8 5.9-4.7 7.7-1.5.6-3 1.2-4.4 1.5 3.6.6 7.4 1.2 10.1 3.9 2.1 1.8 3.3 4.4 3.3 7.4-.5 2.3-1.7 5-4 7.1zm-15.8-17.5h-3.9v9.2c0 2.4-.3 7.4 2.4 8.9 1.2.6 2.4.6 3.9.6h.3.6c1.8-.3 3.6-.3 5-1.2 2.7-1.5 3.6-5 3.6-7.7 0-8.1-5-9.8-11.9-9.8zm0-18.4c-.9 0-3.3-.3-3.9.9-.3.3-.3.9-.3 1.5v14.5h4.1c5.3 0 8.6-3 8.6-8.3.1-5.6-2.8-8.6-8.5-8.6z"/><path d="m92.9 341.3c-7.7 0-14.5-5.9-14.5-13.9s6.8-13.6 14.5-13.6 14.8 5.9 14.8 13.6c-.3 8.3-7.1 13.9-14.8 13.9zm-.3-26.1c-6.5 0-8.6 6.5-8.6 12.1s1.5 12.7 8.6 12.7c6.8 0 8.3-6.5 8.3-12.1.3-5.9-1.2-12.7-8.3-12.7z"/><path d="m121.3 341.3c-5 0-7.4-2.1-7.4-7.1v-18.1h-3v-.6h.3c3.3-1.8 5.6-4.1 7.1-7.7h.9v6.8h6.8v1.5h-6.8v15.7c0 1.2 0 2.4.3 3.9.3 2.4.9 3.9 3.6 3.9 2.1 0 3.3-1.2 4.4-3l1.2.9c-1.8 2.9-4.4 3.8-7.4 3.8z"/><path d="m153 341c-2.7 0-4.4-1.5-5-3.9-3 2.4-6.2 4.4-10.1 4.4-3.3 0-6.2-1.8-6.2-5.3 0-5 4.7-7.1 8.9-8.9l4.4-2.1c.6-.3 2.1-.9 2.4-1.5.3-.3.3-.9.3-1.5 0-4.4-.6-7.1-5.3-7.1-3 0-5.3.3-5.6 3.6-.3 1.5-.9 2.7-2.7 2.7-1.2 0-2.1-.9-2.1-2.1 0-4.7 8-5.3 11.3-5.3 5.9 0 9.8 1.5 9.8 8v11.6c0 1.5 0 4.7 2.1 4.7 1.2 0 1.8-.6 2.7-1.5l1.2.6c-1.6 1.8-3.4 3.6-6.1 3.6zm-5.3-15.7c-1.8.6-3.6 1.5-5 2.4-2.7 1.5-5.6 3.3-5.6 6.5 0 2.4 1.5 4.4 3.9 4.4 2.7 0 5-1.8 6.8-3.6v-9.7z"/><path d="m186.8 340.4c-2.4 0-4.7 0-6.8.3v-1.5c3.9-.3 4.1-.6 4.1-4.4 0-.9 0-1.8 0-2.7v-6.8c0-4.1-.3-9.5-5.6-9.5-2.4 0-5 1.2-6.2 3.3-1.5 2.4-1.5 5-1.5 7.7v5.3 2.7c0 3.9.3 4.1 4.1 4.4v1.5c-2.4 0-4.4-.3-6.8-.3s-4.4 0-6.8.3v-1.5c3.9-.3 4.1-.6 4.1-4.4 0-.9 0-1.8 0-2.7v-7.4c0-1.5.3-6.2-.9-7.1-.6-.6-1.5-.6-2.1-.6h-1.2v-1.2c3-.3 5.6-1.2 8.3-2.1.6 2.1.6 3.9.9 5.9 2.1-3.6 5.3-5.6 9.5-5.6 3.6 0 8 1.2 8.9 5.3.3 1.5.3 3 .3 4.4v8.9 2.7c0 1.2 0 3.3 1.2 3.9.9.6 2.1.6 3.3.6v1.5c-2.4-.9-4.4-.9-6.8-.9z"/><path d="m204 340.4c-2.4 0-4.7 0-6.8.3v-1.5c3.9-.3 4.1-.6 4.1-4.4 0-.9 0-1.8 0-2.7v-8.3c0-.9 0-5-.3-5.9-.6-.6-1.2-.9-2.1-.9-.6 0-1.5 0-2.1 0v-1.5c3.6-.6 6.2-1.2 9.8-2.4v18.7 2.7c0 3.9.3 4.1 4.1 4.4v1.5c-2 0-4.3 0-6.7 0zm-.6-34.4c-1.8 0-3.3-1.5-3.3-3.3s1.5-3.3 3.3-3.3 3.3 1.5 3.3 3.3c-.1 2.2-1.5 3.3-3.3 3.3z"/><path d="m226.5 341.3c-7.7 0-13-5.3-13-13 0-8.6 6.2-14.8 14.8-14.8 2.4 0 8 .6 8 4.1 0 1.2-.9 2.1-2.1 2.1-1.5 0-2.1-1.2-2.7-2.4-.9-2.1-1.2-2.4-3.6-2.4-6.5 0-8.6 6.5-8.6 12.1s1.8 11.9 8.6 11.9c3.3 0 5.6-1.5 7.7-3.9l1.2 1.2c-2.3 3.6-6.2 5.1-10.3 5.1z"/><path d="m58.8 380.4c0 2.1 0 4.4.3 6.5-4.1 0-5 .9-8.6 2.7-3.3 1.5-5.9 2.4-9.8 2.4-5.6 0-10.4-1.5-14.5-5.3-4.1-4.1-5.9-8.6-5.9-14.5 0-12.7 8.6-22.2 21.3-22.2 4.7 0 8.6.9 12.4 3.9l1.2-2.7h.6l-.6 12.1h-1.2c-.3-7.1-5-11.6-12.1-11.6-11.6 0-14.2 11-14.2 20.4 0 8.9 3.3 18.4 13.6 18.4 5.9 0 10.4-2.7 10.4-9.2 0-3.9-1.2-5-5.3-5.3v-1.5h8.3 7.7v1.5c-3 0-3.6 1.2-3.6 4.4z"/><path d="m87.8 391.4c-2.7 0-4.4-1.5-5-3.9-3 2.4-6.2 4.4-10.1 4.4-3.3 0-6.2-1.8-6.2-5.3 0-5 4.7-7.1 8.9-8.9l4.4-2.1c.6-.3 2.1-.9 2.7-1.5.3-.3.3-.9.3-1.5 0-4.4-.6-7.1-5.3-7.1-3 0-5.3.3-5.6 3.6-.3 1.5-.9 2.7-2.7 2.7-1.2 0-2.1-.9-2.1-2.1 0-4.7 8-5.3 11.3-5.3 5.9 0 9.8 1.5 9.8 8v11.6c0 1.5 0 4.7 2.1 4.7 1.2 0 1.8-.6 2.7-1.5l1.2.6c-1.9 1.8-4 3.6-6.4 3.6zm-5.6-15.4c-1.8.6-3.6 1.5-5 2.4-2.7 1.5-5.6 3.3-5.6 6.5 0 2.4 1.5 4.4 3.9 4.4 2.7 0 5-1.8 6.8-3.6v-9.7z"/><path d="m116 369.5c-2.7 0-2.1-3.3-4.4-3.3-1.8 0-3.9 1.5-4.7 3-1.5 2.4-1.5 5-1.5 7.7v5.6 2.7c0 4.1.9 4.1 4.7 4.4v1.5c-2.4 0-4.7-.3-7.1-.3s-4.7 0-7.1.3v-1.5c3.9-.3 4.1-.6 4.1-4.4 0-.9 0-1.8 0-2.7v-7.4c0-1.5.3-6.2-1.2-7.4-.6-.3-1.5-.3-2.1-.6h-1.2v-1.2c3-.3 5.3-1.2 8.3-2.1.6 2.4.9 4.1.9 6.5 1.8-3.9 4.4-6.2 8.9-6.2 1.8 0 4.4.9 4.4 3.3.1 1.2-.8 2.1-2 2.1z"/><path d="m143.8 391.7c-.6-1.5-.9-3-1.2-4.7-2.7 3.3-5 4.7-9.5 4.7-7.7 0-13-5.9-13-13.6s5.3-13.9 13.3-13.9c3.6 0 6.2 1.2 8.6 3.9v-10.4c0-3.9-.6-4.7-4.7-5v-1.2c3.3-.3 6.5-1.2 9.8-1.8v31.3c0 1.8-.3 5.9 1.8 7.1.6.3 1.5.6 2.4.6h.9v1.2c-3 .3-5.7 1.2-8.4 1.8zm-1.7-16.9c0-3.6 0-5.6-3-7.7-1.2-.9-2.7-1.2-4.4-1.2-6.5 0-8.6 6.5-8.6 12.1s1.8 11.9 8.3 11.9c2.4 0 5-1.2 6.2-3.3.9-1.8 1.2-5.3 1.2-7.4.3-1.4.3-2.9.3-4.4z"/><path d="m178.8 374.5h-18.4c-.3.9-.3 1.8-.3 3 0 5.9 3 11.9 9.5 11.9 3.3 0 5.6-1.5 7.7-4.1l1.2 1.2c-3 3.6-5.9 5-10.7 5-7.7 0-13.9-5.3-13.9-13.3 0-7.7 5.9-14.2 13.9-14.2 5.9 0 11.6 3.6 11.6 9.8 0 .7 0 .7-.6.7zm-11-8.9c-4.7 0-6.2 3.3-7.1 7.4h10.7c1.2 0 2.4 0 2.4-1.2 0-3.8-2.1-6.2-6-6.2z"/><path d="m208.1 390.8c-2.4 0-4.7 0-6.8.3v-1.5c3.9-.3 4.1-.6 4.1-4.4 0-.9 0-1.8 0-2.7v-6.8c0-4.1-.3-9.5-5.6-9.5-2.4 0-5 1.2-6.2 3.3-1.5 2.4-1.5 5-1.5 7.7v5.3 2.7c0 3.9.3 4.1 4.1 4.4v1.5c-2.4 0-4.4-.3-6.8-.3s-4.4 0-6.8.3v-1.5c3.9-.3 4.1-.6 4.1-4.4 0-.9 0-1.8 0-2.7v-7.4c0-1.5.3-6.2-.9-7.4-.6-.6-1.5-.6-2.1-.6h-1.2v-1.2c3-.3 5.6-1.2 8.3-2.1.6 2.1.6 3.9.9 5.9 2.1-3.6 5.3-5.6 9.5-5.6 3.6 0 8 1.2 8.9 5.3.3 1.5.3 3 .3 4.4v8.9 2.7c0 1.2 0 3.3 1.2 3.9.9.6 2.1.6 3.3.6v1.5c-2.3-.6-4.7-.6-6.8-.6z"/><path d="m228 391.7c-2.4 0-4.7-.6-6.8-2.1l-1.2 1.8h-.9v-8.9h1.2c.9 4.1 3 7.7 7.7 7.7 2.7 0 5-1.5 5-4.4 0-6.5-13.6-5.9-13.6-14.5 0-4.1 3.6-7.1 7.4-7.1 2.1 0 4.1.6 5.9 1.5l1.2-1.5h.6v7.7h-1.2c-1.2-3.3-2.4-6.2-6.2-6.2-2.1 0-3.9 1.2-3.9 3.3 0 2.7 1.8 3.6 3.9 4.7 4.4 2.4 9.8 4.1 9.8 10.1 0 4.6-4.2 7.9-8.9 7.9z"/><path d="m574.1 286.5v3l3.9.3c4.1.6 9.5 1.5 12.1 3.9 1.5 1.5 2.7 3.3 1.8 6.2l-24 62.8-21.6-57.8c-1.5-3.9-2.1-5.6-2.1-7.7 0-3.9 3.3-6.5 7.4-7.1l8.3-.6v-3h-51v3l5 .3c5 .3 7.7 0 10.7 3.6 2.4 2.7 1.2 6.2.9 6.5l-24 63.1-21.3-58.1c-1.5-3.9-2.4-6.2-2.4-8.6.3-4.1 4.1-5.6 6.8-6.2s6.5-.6 6.5-.6v-3h-50.1v3s3.3 0 8 .6c4.4.6 7.7 3.3 11 11.9l32 85.6.9 2.7h1.8l1.2-2.7 32.3-82.7 29.9 82.7 1.2 3h2.1l.9-2.7 30.5-77.6 2.7-5.9c1.8-4.4 2.7-5.3 3.9-7.7 2.1-3.9 6.8-5.3 13-6.2 3.9-.9 5.6-.6 8-.9v-3h-46.3z"/><path d="m374.1 387.2c-8.9 0-16.9-9.5-23.4-17.2l-46.2-68.4 27-30.5c9.2-9.5 14.2-13.9 24.9-14.8l5.6-.6v-3.3h-47.4v3.6s2.7 0 4.7.3c4.4.3 8.9 2.7 8.9 6.5 0 4.7-4.1 8.9-8.6 13.6l-36.4 40.3v-44.1c0-14.5 6.8-15.7 8.9-16 3.6-.6 5.9-.6 5.9-.6v-3.3h-47.1v3.3s3.3 0 6.5.3c3.3.3 8.3 2.1 8.3 16.3v99c0 14.5-3.3 16-12.1 16h-2.7v3.9h48v-3.9h-3c-8.9 0-12.7-1.5-12.7-15.7v-46.2l8.6-9.5 42.4 62.2s.9 1.2 1.2 2.7c0 1.2-.3 3-1.2 3.9-1.5 2.1-4.4 3-10.1 3h-.6c-1.5 0-2.1 0-2.1 0v3.9h55.6v-3.9z"/><path d="m451.7 325.9c0-11.3-5.6-21.9-11.6-27.9-7.7-7.7-18.7-12.1-31.1-12.1-27.9 0-47.4 23.7-47.4 52.7 0 31.4 22.5 53 52.4 53 13.6 0 22.8-4.7 27.9-8.9 4.7-3.9 7.4-7.4 9.5-11 3.3-5.6 3.6-8.6 3.6-8.6l-2.4-1.2s-.9 2.1-3.3 6.5c-2.7 4.4-8 8-10.7 9.8-2.4 1.5-9.2 4.1-19 4.1-12.1 0-37.6-8.9-37.6-55.1v-1.5h70c-.3.5-.3.5-.3.2zm-16.3-3.6h-53.6l.3-1.8c1.8-16.6 11.3-31.7 26.4-32 17.4-.2 26.9 13.1 26.9 33.8z"/></g></svg>