<svg xmlns="http://www.w3.org/2000/svg" width="240" height="240" viewBox="0 0 240 180">
  <defs>
    <radialGradient id="treeRadialGradient"
        fx="5%" fy="5%" r="65%"
        spreadMethod="pad">
      <stop offset="0%"   stop-color="#75B176" stop-opacity="1"/>
      <stop offset="100%" stop-color="#355d35" stop-opacity="1" />
    </radialGradient>
  </defs>
  <path class="tree" style="fill:url(#treeRadialGradient)" d="M207 74.8c-.7 1-3.8 2-4.3.7-.5-1.5-2 2.1-3.4 1.4-1.4-.8-5.3-2.3-5.5-1-.3 1.5-1.8 2.8-2.4 2-.7-.8-3.3-3.6-2.2-4.4 1-.7 1.4-3-.5-2.3-2 .7-1.6-3.5 0-4.2 1-.5 1.4-1 2.3.4s2.2-.3 2.2-1.3.9-2.5 1.8-2.5 3.6 1 4.6 2.7c1 1.7 1.5 4.5 3 5 1.6.3 5.2 2.6 4.4 3.5m-20.4 2c-2.3-.8-1 3.7-4 2-3-1.7-3-2.4-3.2-4-.1-1.5-4.6-1.6-.3-3.8 1.2-.6 4-.8 3.8.5-.2 1.3-3.6 2.2.2 2.4 3.6.3-2.1 1.8 5.4 1.3 1 0 .4 2.6-1.9 1.7m-7.2 10.8c-1.4.5-2 1.3-2.4.6 0 0 2-3 2.8-2.7.8.3 1 1.6-.4 2m-3 4c-1.8 1.7-1.4 2.6-.7 3.8.6 1.1-3.9-2.2-1.7-5.2.6-.8 4-.5 2.3 1.3m-3.6-20c-1.4-.5-.1-3.2.7-4.9.5-1.2.7-3.3 2-1.7 1.3 1.7.7 3.5-.1 4.5-.8 1 .3 3.1-2.6 2m-2-2c-1 0-1.7-.7-1.7-1.5s.8-1.5 1.7-1.5c.9 0 1.6.7 1.6 1.5s-.7 1.4-1.6 1.4m-.2 26c-.5.7-.9-1.6-2.4-1.5-1.5.2-3.2-.6-2.3-2.3 0 0 2.7-.9 3.7.7 1 1.5 1.6 2.5 1 3.2m-5.1-26.6c-.9.6-.9-1-3.6.6s-2.8-.5-2.3-1.4c1-1.7 1.7-2.3 3.2-2.3s4.5-1.3 5 1.2c.5 2.4 3.2 5.6 2 6-3.1 1-3.4-4.8-4.3-4.1M162 112c-2-1.5.2-1.8.2-1.8s1 .1 1.4.6c.8 1 .4 2.8-1.6 1.2m1 12.9c-1 .7-3 .5-1.9-1.1 1.2-1.6 2.2 0 2.2 0s.2.8-.3 1m-4.2-16.3c-.6-.1-3-1.8-4.8-1.8-1.8 0-3.1 1.1-3.5-.5-.2-1 1.8-2 2.7-2.5.9-.3 2.7-1.4 3-2.4s1.8-1.4 2.1.6c.4 2.1 5.2 3.6 4.7 5-.6 1.5-3.5 1.7-4.2 1.6m1.3 15.4s-.6.5-1 .3c-1-.6-1.8-2.6.1-2.2 2 .4 1 2 1 2m-4-11.5c-1-.7-2.6-.4-3 .6-.4 1-2 2.3-3.2 1-1.3-1.5-.5-4.7 1.8-3.3 1.2.7 5.4-2.3 5.9-1.5.5.7-.4 3.8-1.4 3.2m.5 8.7c0 1.2.1 2.3-.8 1.6-.7-.6-.6-4.1.5-3.5s.4.7.3 1.9m-7.7-66.4c-1.8 1.1-2.6 1-3.5.9-.9-.2-1.1 2-2 .1-.4-.8 3.3-2.2 4.6-2.2 1.3 0 2.3-2.2 3-1 .8 1.2.8 3.6-.5 4.8-2 1.8-.3-3.5-1.6-2.6m-5 53.8c-2-.6-5.4.6-3.3-1.8 1.6-2 2.1-4.6 3.8-2.3.7 1 3 5-.4 4m-.1 9.9c-1.3-.1-3.4-3-2.7-3 1.1-.2 2.4-1 3.3 0 1 1 .7 3.1-.6 3m-5.3 6.1c-2.4 4-4.8 2-5.3 1.5-.5-.6-2.3-4.2-.2-5.6 1.2-.8 1.4-3.4 3.4-1.8 2.1 1.7 4.5 2.1 2.1 6m-9.9-20.2c1.1-1 .1-3.1 2.6-1.4 2.4 1.6 1.6 3.7.6 3.8-1 .2-5.1-.6-3.2-2.4m-3-3.5c-.3-1.5-.7-2.6 0-3.6.4-.4 2.4-.9 2.7-.2.4.6 2.4.7 2.5 1.9.1 1.1-2.2 1.1-2.7 1.7-.5.5-2 1.8-2.5.2m.7 15.6c-1.8 1.2-3.9 2.4-4.9 1.1-1-1.3-2.2-2-3.5-2.6-1.2-.5-.9-4-.3-4.5.6-.4 2-.6 3.2-.5 1.1.2 4.6.3 5.8 2.6 1.1 2.3 1.5 2.6-.3 3.9M113.3 97c-.6-1.8 1.5-3.8 1.7-4.3.3-.5 2-3 3.6-1.6 1.6 1.2-.8 2.4-.9 3.4-.1 1 1.4-.4 2.3 3.2 1 3.6-2.5 1.6-3.4 2.6-2 2-2.6-1.6-3.3-3.3m-1.2-28.7c-1-.5-.6-1.5-.2-2.3.4-.8 1.3-.2 1.3-.2 0 .2 1.4 1.7 1 2.2-.4.5-1.1.7-2.1.3M109 51.6c-1.4.2-1.8-2.2 0-2.3 1.8-.2 2.7 3 2.6 3.3-.4 1-1.2-1.3-2.6-1m2 12.4c0 1.8-.6 3-1.6 3s-3.4 1.2-4.3 1.3c-1.2.1-.1.5-2-1-2-1.3-1-.4.4-2.4 1.2-1.9 2-.6 5-1.9 3-1.3 2.4-.8 2.4 1m-4.7 55.2c-1 0-3-2.1-4.2-2s-2 2.3-4 1.8c-1.9-.5-3-2-2.9-3.4.1-1.5-1.1-2.4.1-3.4 1.2-1 3.1 2.7 4.5 1.4 1.5-1.3 2.7-1 4.2-1 1.4 0 6.4.8 6.1 3-.2 2.1-2.8 3.4-3.8 3.6m-12.5-17.3c-1.5-.5-2.5-2.5.2-2.2 2.7.4 1.3 2 1.3 2s-.9.5-1.5.2m2.2.3c1-1.2 2.9 0 2.9 0 .5 1 .8 3-.3 2.6-1.1-.5-3.6-1.4-2.6-2.6m13.6-22.4c.7 1 .7 2.2-.5 1.8-1.2-.4-1.8.4-2.7.7-1 .2-2.8-.5-2.7-1.6.3-2.3 5.3-1.9 5.9-.9m-2.6 17.5c.4 1.8-.1 2.6-1.2 2.3-1.2-.2-1.6 1.4-3.8 1.7S98 98 98 97c.7-1.3 4-1.3 5.4-2.2 1.5-1 3.2.6 3.6 2.4m-10-16c.3-2.6 1-.7 2.4 0 1.5.6 4.3 1.5.3 2.4-1.3.3-3 .1-2.7-2.5m2.4-49.8c1.4-1.3 1 1.2 3.4 1.3 2.3.1 6 0 5.9 1.5-.3 3.4 5 2.6 4.9 4.3-.3 2.8-3.5 3.3-3.9 4-.3.8-3 .3-2.7 3 .3 2.7-2-.4-2.4-1.5-.8-2.2 2.3-3.3 1.8-4.5-.5-1.2-2.6 2-3.7.8-1.2-1.3-2.6-.3-1.6-2.9 1-2.5.4-2.1-.9-2.7-1.3-.5-1.3-2.8-.8-3.3m4.8-5.1c1.7.3 4.9 1 4.5 2.8-.4 1.8-1.7 2.3-2.3 1-.7-1.3-.1-2.2-2.5-2.2-2.3 0-2.7.5-2.7-.5 0-.8 1.3-1.5 3-1.1M117 46.1a7 7 0 0 1-1.7 2c.2 0 .5.2.8 1.7.3 2.4-.6 3.9-1 3.5-.3-.4-2.4-1.6-2.3-3.6.2-2 2.4-3.4.4-3.8-1.9-.3-2.1 1-2.4-1-.2-1.2-.1-1.7 2.7-1.5 2.8.1 5.1.2 3.5 2.7m2.4 22c2 1.5 2.4-1 3.3 0 1 1 .4 2.5-.7 3-1.2.5-2.3-.4-3.8-.4s-1.4-.2-1.2-1c0-.8.3-3.2 2.4-1.7m2-24.6c1-1.4.4-2.6 2.2-2.2 1.8.4 1.3 3.2 1.2 4.2-.1 1-2 1-2.6 1.7-.6.8-1.6.8-1.9-.3-.3-1 .1-2 1.2-3.4m4 31.7c-.6 1.3-1.6 3.2-2.4 3.2-.7 0-1-1.4-2.2-2-1.1-.7-1.6 0-1.5-1.7 0-.6.8-1.4 3-1.2 2.1.3 3.8.4 3.2 1.7m.5-7.2c.8 0 4.7.3 4.2 2.5-.5 2.1-1.7 2.5-2.7 2.5-1 0-1.4-2.3-2.3-2.8-.9-.5-1-2.3.8-2.2m2.4-25c.8-.1-.1-4.4.8-4.2.9.3 2.6 2.1 4.2 2.3 1.7.3 2.2 1 .8 2.1-1.4 1-2 1.2-2 2.4-.2 1.3-1.7 1.6-2 .6-.2-1-1-2-1.8-1-.8 1.1-2.5-1.5 0-2.1m5 35.2c-.2.9-.2 2.2-1.9 2-1.7 0-5 1.2-1.8-2.3.8-.8 4-.6 3.7.3m3.8-14.8c1.2-.6 1.6 3.4.5 3.5-1.2.1-4.4 1.4-4.8 2-.4.7-2 .6-2 0 0-3.2 1.7-1.6 2.6-1.6 1 0 2.4-3.2 3.7-3.9m.6-6.4c.8-.5 4.8-1 4.5.3-.3 1.2-3 3.3-3.9 3-.9-.5-1.4-2.8-.6-3.3m6.3 1.5c1-1.8 1.7-.4 1.7-.4s0 .8-.3 1.2c-.8.8-2.4 1-1.4-.8m.4 23.6c0 1.5-1.3 1.5-2.2.9-1-.7-1.8-2.4-4-2.1s-6.4 1-3-3c1-1 2.5-1.9 3.5-1.1 1 .8 2 3.7 3 3 1-.8 2.7.7 2.7 2.3m-1-30.3c1.2 1-1.6 4.4-2.7 3 0 0 1.6-4 2.8-3m9.6-6.2c1 .4.5 1.8-.3 2.4-.8.6-1.8.4-1.8.4-.9-1.6 1-3.2 2-2.8m.3-12.3c-.4-1.4 1.4-2.1 2-1.4.6.8 2.3 3.3 1.2 3.8-1.2.5-3.6 3-4.8 1.9-1-1.1 2-2.8 1.5-4.3m6.7 13.7c.8-.7 2.3 0 .6.7-1.8.8.9 1.8 1.8 2.5.9.6 1.5 1.7.5 1.7s-2 1.1-3.4 1.4c-1.3.2-3.2-1.3-3.6-4.3-.4-3 3.5-1.5 4.1-2m-.5-18.3c1.7-.5 2.2.8 2.6 1.4.4.7-3 3.1-3.7 1.6-.4-.9-.6-2.5 1.1-3m4.5 28c-.5.7-3.2.6-3.8 1.5-.7.9-3.5.9-3.7.2 0-.6-.6-1.2-.2-1.7.4-.5 4.6.4 5.4-.6.8-1 2.8 0 2.3.6m-1.5-11.5c.1-.5 1.6-1.3 1.5 0-.1 1.3-.8 1.4-2 1-1-.4.3-.4.5-1m2.1 13.7c.9-1.2 1.4-.3 1.4-.3s.1.5-.2.8c-.6.5-2 .6-1.2-.5m9.8-14.6c.5-1 3.2-.2 2.9.7-.4 1-.4 3.4-1.7 1.7-1.3-1.7-2.2-.5-1.2-2.4m3.9 22.3c.8-1.2 1.4-.3 1.4-.3s.1.5-.2.8c-.7.5-2 .6-1.2-.5m1.4-20.8c1-.6 2.2-2.7 1.7-.5-.6 2.2 2.8.5 1.5 2.8-1.3 2.3-2.3 2.5-2.3 2 0-.3 1.7-2-.4-2.6-2-.5-3 0-.5-1.7m4.3 3.4c.9-1.2 1.4-.3 1.4-.3s.1.5-.2.8c-.6.5-2 .6-1.2-.5m1.8 21s.1.5-.2.8c-.6.5-2 .6-1.1-.5.8-1.2 1.3-.3 1.3-.3m13.8-6.6c.8-1.2 1.4-.3 1.4-.3s0 .5-.2.8c-.7.5-2 .6-1.2-.6m-14 50.2c1.5 0 4.5-.4 4 1.3s-3 1.3-3 1.3c-1-.7-2.3-2.5-1-2.6m5.7-8.3c.5-.6 2-.9 2.7.2.6 1 1.1 1.1 2 1.1 1 0 1 1.2.4 2.2-.5 1 .8 1.8-.9 2.5-1.7.6-1.3 2.3-2.6-.2-1.3-2.4 0-3.2-1.1-4.2-1.2-1-1.4-.5-.5-1.6m7.5-2.5c1-2 1.8-2 2.2-1 .4 1.1 2.2 4.3.7 4.4-1.6.2-1 2.7-2.5 1.6s-2.3-1-2.6-2.6c-.2-1.5 1.3-.4 2.2-2.4m18 8.9c.7.4.4 1.6-.2 2.1-.6.6-1.2.4-1.2.4-.7-1.4.7-2.9 1.4-2.5m-126.7 1.6c-2-.5-3.4-1.3-3.7-3.2-.3-2-2.6-4.5-2-5.3.4-.7 1.1-1 1.3-1.5.6-1.2 1.8-2.5 2.9-.7 1 1.8 2.5 2.7 2.7 4.2.1 1.4.9 7-1.2 6.5m-6.1 6.7c-1.4.2-3.7-.8-1.6-1.6 3.4-1.1 0-3.7-1.3-4-1.3-.4-3.4-.4-4.2-2.1-.8-1.7-3 .1-3.2.8-.1.6-1 2.3-2.3 2-1.4-.2-1.8.5-1.3-.9.2-.6 2.2-.2 2.3-1.3.1-1 .6-2.3 1.7-2.3s2.4-1.8 4-1.4c1.5.4 3.4 3.5 4.2 4.4.8.9 4.6 3.2 6.2 4.6 1.5 1.4 2.3.5 2.3 1.7s-5.4-.2-6.8 0M69.5 94.6c-.6-1.6-.5 1.4-1.5.9-1-.5-1.2-.4-1-1.3 0-.5.7-1.2 2.4-1.3 1.7-.1 4 2.6 3.5 3-.5.6-2.7.2-3.4-1.3m-3 24c0 1.8-2.9 2-3.3 1.4-.4-.6-.7-2.5.5-3.8 1.3-1.3 5.4-1.8 5.2-1-.3 1-2.6 1.6-2.5 3.4m-3.8-28.9c.1-.6-1.2-2.3-.4-3 .7-.5 3.9 1.3 2.7 2.2-1.2 1-2.4 1.4-2.3.8m-.9 4c-.9-.3-1.5-1.2-1.1-2 .3-.7 1.4-.8 1.9 0 .5 1 .1 2.2-.8 2m-.1 23.6c-1.8 2.3-3.4 2-2-.3.5-1.2 3.8-2 2 .3m-.3 5c-1.8 2.3-3.3 2-2-.3.6-1.2 3.8-2 2 .3M58 97.8c-.5-.9-.3-1.8-.3-1.8 1.7-.7 3 1.3 2.6 2.3-.5 1-1.8.4-2.3-.5m1.5-41.1c-.8-1.8-2-3.3-.8-4.5.6-.6 3.1 0 3.4.6.2.7 2 3.9 1.3 4.7-.7.8-3.1 1-3.9-.8m-3.3-19.3c.3-.7 3.3 1.8 2.4 3-.9 1.1-3-1.7-2.4-3m13.7 52.8c-.6.3-4 .8-4.2-.6 0 .1 3.5-3.2 4.2-3 1.4.2.7 3.4 0 3.6m0-16.4c0 .8.4 2.2-1.5 2-2-.3-3.5-.8-3.4-2 .2-1.2 1.5-1.5 2.6-1.5 1.2 0 2.6-2.1 3.2-1.2.7.9-.9 2-.9 2.7M74 50.5c.5 1.6 1.3 1.8.2 3.1-1.2 1.3 1.5 3.2-.7 3.7-2.2.6-2.7-2.1-4.6-2.3-2 0-4.9-.7-4.9-2.1 0-1.5-2.4-2.2-1.7-4.2.4-.8 3.6.3 4.2-.5.5-.7 1.6-.6 1.9 1 .2 1.7 1.4 1.9 2.4 1 1-1 2.7-1.2 3.2.3m3.4 20.6c1.1-.1 1.5-2.2 3-2 1.3.3 1.7-3.7 3.4-2 1.7 1.7-2.6 2.4-2.7 5.1-.1 2.7-3.3 2.1-3.9 1-.5-1-1.2-1.6-2.1-.3-1 1.3-3.2 1.7-2.6-.1.6-1.8.6-2.3.6-2.3.3-.8-1-2.2.4-2.5 1.4-.2 2.7 3.2 3.9 3.1m-1-14.3c.9-1.2 3.4-.6 5-.5 1.5.2 1.6 2 .7 2.7-.9.8-.2 4.1-2.3 3.1-2-1-5.4-2.2-3.3-5.3M73.9 87c.4-.5 2.6.4 3 .3.6-.1.3 2.4-.6 3-.9.5-2.7.9-2.7 0 0-.7-.2-2.6.3-3.3m.6 22c0 1.2-2.3 1-2.7.1 0 0 2.8-1.3 2.8 0m-.3-4.5c0-2.1-3 1.5-2-2.3.3-.9 1.9-.2 2.8-1.9.9-1.7 1.8-1.4 3-.5 1.3.9 3.3 2.2 2.7 3.2-.5 1 1.7 4.5 1 5.3-.8.7-4.2 0-4.7-1.2s-2.8-.4-2.8-2.6M84.6 79s-1 3.6-2.5 2.7c-1.5-.8 1-2.9 2.5-2.7m1.3-2c.7-.5 2.4-1.8 2.5-.9a4 4 0 0 1-.6 2.8c-.7 1-2.2 1.3-2.7.4s.8-2.3.8-2.3m1.9-10.3c1-.3 3-.3 2.4.7-.6 1-2 3.3-3 2.1-1-1.1.6-2.8.6-2.8M54.2 93.3c-.7.4-.7-1.5-.7-1.5.5-.1 1.5 1.1.7 1.5m-8.8-12.6c-1.4 1-6.4 2.2-6.6-1.1 0-1.1 2.3-1.6 4.5-1.2 2.2.4 3.5 1.4 2 2.3m-6.5 9.5c-.6 1.7-1.6 2.5-2.7 1.6-1-1-1.7-.7-2.7-1.2-1-.5 1.4-1.5 1.2-2.2-.3-.6.4-1 .4-1 1.2-.4 2.4.8 3.4.4s1 .8.4 2.4m198.3-16.5c-.4-2.2-2.7-3.9-5.3-.8-2.5 3-1.6 0-4 1.3-2.9 1.4-3.4.5-5.6-1.2-1.2-.9-1.4-5.9-3.3-3.2-2.7 3.7-2-1.8-3.1-2.3-2.6-1-4.4.8-5.4 2-1 1-4.7.6-6.2-2.1s1.2-3.5 2-2.2c.7 1.3 3.5-.1 2.1-2-1.4-2 5.2-2.8 7.6-3.7 2.4-.9 0-2.3-2-2.2-2.1.2-3.3.4-4.2-2-.9-2.5-1.9-1.8-2.4-1.3s-1.3 2.4-4.1.3c-2.9-2.2 1-3.4 2.3-2.2 1.3 1.1 2-3.2 4.1-3.1 2.2.1 5.3 1.3 7.5 1.2 2.1-.2 3.4 1.4.8 1.8-2.5.3-1.9 2.7-.7 3.3 1.1.6 3-2.7 4.9-1.4 1.8 1.3 3.7-.5 6.8 1 3 1.6 3 .4 4.5-.2 1.4-.7 3.3-1.3 3.2-3-.2-1.7-3.4 0-4.9-3-1-1.8-3.2-1-5.5-.6s-3.5 2.7-4.4 1c-.9-1.9 5.8-4.2 6.2-5.9.4-1.6-1.3.5-2-1.6-.6-2.2-2-1.6-4-1.5-2.1.2-3.1-1.8-4.7-1.9-1.5-.1-2.7 2.7-5.4 2.6-2.7-.1-1.8-2.4-3.5-4.1-1.6-1.7.4-4.1 2-1 1.5 3.3 2 1.7 3.4.8 1.5-.8 2.9-2.3 5.3 0 2.5 2.1 2 .3 3.6-.5 1.6-.7 2-2.4 1-2.4-1.1 0-6.1-.8-3.4-2 2-1 1.5-1.5.2-2.7-1-.8-2-.4-1.8-1.5.1-.5-1.5-2.2-2.6-2-1.2.2-4 1-3.7-2.4.3-2.5-.9-.3-2.2-.5-1.3-.1-2.4 2.7-3.2.2-.8-3-4.2.8-4.3.7-.3-.3-.7 2.1-2.2 2-1.6-.3-4 2.8-3.7.8.4-2-.9 0-1.3 0-2.3.3-5.3 1.9-1 4.8 4.5 3 .2 2.7-2.4 3.4-2.5.6-1.2 2.7-.2 3.8 1 1.2-.8 4.1-2 1.3-1.4-2.8-2.1-1.2-3.8.1-1.7 1.3-1-1.6-.3-1.6.8 0 1 0 2.2-3.4 1.2-3.4-5.6-7.6-5.9-9.9-.2-2.3-1.7-4.2-3-3s-2.5.6-4-1.2c-1.6-1.8-2.1 1-3 .8-.9-.3-2.8-.3-4.9 1.2-5.4 4 1.4 3.3 2.5 4.4 2.3 2.6-.7 3.6-2.1 2-1.4-1.7-1.8-.4-2.7-.3-.9.1-2.2-.7-3-1.6-1-.9-2.5-2.3-3.8-.5-1.3 1.8-2.7 1-5.2-1.5-2.4-2.4-2.8-.6-3.2.9-.3 1.5-3.6 1.3-4.6 1.5-1 .3-3.5 4-5.8-.7-2.3-4.8 2-5 5-4.3 2.7.7.5-3.7 4.5-3.4 4 .2 1.3 1 5 2.3 3.8 1.3 2-2.5 4.8-2.2 2.8.2 1.3-2 5-4.3 2.2-1.2-3.2-3.2-6-2.5-2.9.6-3.1-.7-4.8-1.6-1.7-.9-3.7-1.1-5.1.3-3.6 3.6-3.5.1-3.5-1.5 0-1.7-5.5-4.8-8.2-5.2-2.7-.4-7.5 4.8-8.9 3-1.4-1.6-3-.3-6.5 0-3.5.5-1.8 1.8-.2 3.2 1.7 1.4-1 1.5-2.4 1.3-1.4-.3-2.7 1.6 1 2.5 3.8 1 .7 2-.7 2-1.5 0-3.5 1.4-5.6 4-2 2.5-3.4 1.9-5.7 1.4-2.4-.5 0-5.2 1.2-5 1.3.3 5-2 4.2-4.4-1-2.5-1-1.8 1.9-3.9 2.8-2 0-3.7-1.3-4.2s-3.6 2.3-4.9.8c-1.3-1.6-2.5-1.6-4-1.6s-1.5 2.6-3.4.8c-.5-.5-1.1-.9-1.8-1.1-.7-.3-1.9-1.4-2.2-.6-.8 1.6-2.8-4-3 0-.2 1.1-1.5.4-2-.2-.7-1-2 .7-3 .5-1.4-.4-2.3 1.1-3 .9-1.2-.4-4.4-3.4-5.8-.4-1.4 3 2.3 1 1.9 3-.4 1.9 1.8 3.2.6 4.5-1.1 1.2-5.5 2-8.3-.2-2.8-2.2-4.3 2-4.8 4.1-.5 2.2 4.1 1.7 4.8 3 .6 1.3 5.4-1 8.6.5 3.2 1.4-2.7 1.3-3 2.4-.2 1.2 2.7-.2 3.5 1.6.8 1.8 2 0 4.1 1.7 2 1.6 3.7.3 5.5-.6 1.8-.9 4.2 1.3 4 2.6-.4 1.3-1.8 1-3 2.2-1 1.3-2.8-2.2-4.6.6-1.8 2.9 3.5.2 4.3 1.8.8 1.7 2.4 1.4 2.8 2 .4.7-2.7 2.8-4.5 3.7-1.8.9-3.2 2-6.3 1.4-3-.5 1.6-4.5-2.3-4.9-1.2-.1-4-1-3.7-2.7.2-1.7-5.3-7.3-6.8-8.6-1.6-1.3.4 5-1.8 4.9-2.2-.2-5-4.5-8.9-7.2-1.8-1.3-3.7-.4-5.4-1-.9-.3-2.4 1.7-2.6.8-1-4-2.1 1-2.8.6-1-.8-1.5 1.5-2.7.6-1-.7-1 1.6-1.3 3.6-.4 3.9-2 1.5-6 2.2-4 .6-4 5-3.7 6.5.2 1.6-.7 2.9-3 2-2.3-1 .1-2.9-2-3.6-2-.8-6.9 5.4-6.9 6.8 0 1.4 3.9-.8 6 2.4 1.4 1.9 5.3-.4 6.8 1 1.4 1.4 5.5-1.6 6.6-3 1.2-1.4 3.8-1.7 5.6-2 1.8-.2 2 3 2 4s3.4.3 2.2 3.4c-.5 1.3-2 1-7.3 1.4-5.4.4 1.2 2 .9 3.3-.3 1.3-5 .8-6.3 2.3-1.3 1.6 4.2 4.9 6.2 5.7 1.9.7 7-3.6 8-2.3 1.2 1.3 1.9 3.3 4 5 2 1.6 2.9 2 0 5-3.1 3-7.9-.8-7.9-.8-3-.6-4.7-2.3-6.5.4-1.1 1.7-.5 4.1-2 5.3-1.6 1.1-2.9-2.2-5.2-2-4.4.5-4.2-3.5-6.2-4.2-1.3-.4-5.5 3.8-5.4-1 .2-6-3.1 0-4.2-1-2.4-2-4.2 2.8-5.3-.5-.5-1.3-2.6.5-3.5 1-2 1.4 0 5.2-2.1 5.4-2.2 0-1.6 1.2-3.1 2.7-1.6 1.4 0 3-1 3.7-.8.6-.7 2.6-.2 3 1.2.7 1.4-3.9 2.8-.8 1.5 3-3.4 3.8-4.2 2.7-.8-1.2-1.8-4.5-2.6-1.2-.6 2.7-4 3.6-3.7 4.9.5 2.5 3.7.4 6-.4 2.1-.8 2 3.2 2 5.8 0 2.6 3 1.8 3.7 2.4.8.7 2 1.6 3.3 1.7 1.5.1 2.9-2.4.2-2.8-2.7-.4 0-2.3-3.1-2-3 .2-1.3-2.8-.5-1.9.8 1 3.6.3 5.9.6 2.3.4 2.8 3.8 4.9 3.6 1 0 2.3-.2 2.4 1.2.1 1.4-1.1 3.6-.4 3.9.5.1.8-2.3 2.7-3 2-.6 1.5 2.8 1.8 4.8.4 1.9-1.9.2-2.1 3-.3 2.6 1.4 1.6 2.8.6 3.8-2.8 2.7 1.8 4.7 2 4 .5 3-2.4 5.3-3a9.6 9.6 0 0 0 4.7-2.2c1.2-1 3.5-1.3 5.7.7s3 2.5 4.6 1.7c2.3-1 1.8 1.8 1 2.8-1 1-6.2.8-9 .4-2.9-.4-5 2.2-3.5 2.5 1.4.2 3.4 1.5 1.8 2.3-1.7.7-1.3 2.3-3 2.1-1.7 0-3.5-3.8-5.4.6-2 4.3 3.3 7.2 7.5 5.6 4-1.5 5.4-.1 5.9 1.4.5 1.6 5.4 2.8 5.4 2.8 2.3 5-2.2 1-3.5.6-1.4-.4-2.9 2.7-5.8 2.3-2.9-.4-3.8 1-3 1.5.7.6 2.3 2.1 0 3.1-2.4 1-1.2 3.7-2.4 4.8-1.1 1.2-.6 3.1 1.6 3.1 2 0 7.3-.4 8 1 .8 1.3 6.2 0 6.2 0 5.2 0-.3 3 .2 4.6.6 1.5 11-.4 13.1 1 2.2 1.3-.3 4.4 1 5.2 1.4.7 4.2-2.7 2.7-5.4s1-1.6.4-4c-.6-2.6 5.2-4.1 7.9-3.8 2.7.4 4.6-.5 4.2 2.4s3 .5 4.5 1.1c1.5.6 1.5-2.1-.2-3.3-1.8-1.1 1.5-2.9 2.5-3.4 1-.6-2.3-1.8 3.3-3.9 5.6-2.1 9.8.6 13.8 3.5 4.1 2.9 2.4 10.8 1.2 15.6-1.2 4.8-3.5 8-4.8 10.4-2 3.6-4.8 5.2-9.6 6-38.5 3.3-53 14-53 14s29-12.5 80-12.5c37.6 0 75.3 12.6 75.3 12.6s-19.1-9.9-54-14.2c-1.7-1.3-2-1.8-2.2-2.9-.3-1.1-2.9-2.6-4.8-5.2-1.9-2.5-1.4-6.5.1-10 1.6-3.5 2.7-8.9 6-10.3 3.4-1.4 2.5-3.2 3.4-4 1-.7 3-3 4.1-.3 1.2 2.5-1.6 0-3.8 1.9-2.2 1.8 1.8 1.4 2.4 3.2.7 1.8 3.1 1.8 4.3 1.5 1.1-.2 2 .4 1.3 1.6-.8 1.1-1.4 1.8-1 3.2.3 1.4 2.6 1 4-.3s.7-1.5 2-.4c1.3 1.2 1-1.3 2.8-1.8 1.8-.5 1-1.1 1.7-2.2.6-1 2.4-.9 3.4 0 1 .7.3 3 1 1.3.6-1.6 2.1-.2 2.1-.2 1.7 2 2-1 4.3-.7 3.8.7 3.4-.3 5.4-1.1 1.9-.8 2-1.3 3.2.8 1.1 2 1 1.2 4.6 1.4 3.6.1 6.3-4.1 7.5-5.7 1.1-1.5 2.4-1.4 1.4-4.7-1-3.4-3.5.9-4.5-2.5-1-3.3-3.9-.9-4.8-3.4-.9-2.6 3.1-1 4.3-1.7 1.1-.7 2.3 2.7 4 2.6 1.6-.2 3.8 1.5 5 .2s-1.3-2-2.5-3.6c-1.1-1.7 1.7-1.7 2.9-.6 1.1 1 1.6.5 4 .6 2.3.1 3 3 4 2 .8-1-1.9-1.7.8-3.5s2.6-.3 5-.2c2.2.2 2.5-3.4 3.4-5.2.9-1.8.5-2.6-1.2-3.4-1.7-.7-2.2.8-3-1.6-.7-2.5-2.1-2.9-3.8-2.2-1.7.6-5.4-.4-5.3-2.2.2-1.8-3.2-2.4-5.2-2.7-2-.3-4.1-.4-4.5-2.2-.4-1.8-1.3-2.2-3.4-2.2-2 0-2.7.7-4.2-1.4-1.6-2-3.7-1.1-5.4.3-1.7 1.4-.8 3-2.7 3.4-2 .6-2.5-2.5-.7-4 1.8-1.3 2.7-.8 1.7-2.5-1-1.7 0-1.2 1-2.8.8-1.7 2.6-.5 2.7 1.4.2 1.9 3.3 1 4.7.9 1.4-.2 3.3-1 3.6.7.2 1.7 2 1.2 4.6.2 2.7-1 5.5 2.2 6.6 2.4 1 .3.6-1.7 2.1-3.2 1.2-1.2-1.1-.6-1.8-2.6-.6-1.9 1.3-2.1 3.9-.4 2.6 1.8 1.4 3.4 2.8 4 1.4.7 3.2 2.7 6 0 2.6-2.7 2.6-.5 5.3-2.2 2.7-1.6 5.4 0 6.6-1.6 1.2-1.7 1.3-1.4 4.9 0 3.6 1.4 2.3-1 2.2-6-.2-4.8 2-2.6 2-4.4s-1.7-.6-2-2.7"/></svg>